# xmcd
# Track frame offsets:
# 150
# 18287
# 34232
# 47989
# 61320
# 74267
# 86010
# 97387
# 109629
# 122215
# 137610
# 148792
# 159117
# 173057
# 187355
#
# Disc length: 2714 seconds
# Revision: 2
# Processed by: cddbd v1.5.2PL0 Copyright (c) Steve Scherf et al.
# Submitted via: VisiTrax 2.10.0.248 - For more info visit www.synapsa.com
#
DISCID=da0a980f
DTITLE=Various Artist - The Pen Of Mel Holt
DYEAR=1900
DGENRE=
TTITLE0=Ray Price - Here's To You
TTITLE1=Faron Young - Twin Fiddles Turn Me On
TTITLE2=Willie Nelson - Once Your Past The Blues
TTITLE3=Gene Watson - Somewhere Beyond Nowhere
TTITLE4=Ray Pennington and Buddy Emmons - Midnight Comes And Goes
TTITLE5=Curtis Potter - We're Not Talking Anymore
TTITLE6=Clinton Gregory - I'll Never Always Love You
TTITLE7=The Whites - Till This Ring Turns Green
TTITLE8=The Geezinslaws - I Kissed The Bus
TTITLE9=Don Cox - The Reins Are In Your Hands
TTITLE10=Floyd Cramer - Secure For The Night
TTITLE11=Dawn Faucett - Mama Never Told Me
TTITLE12=Cal Smith - King Lear
TTITLE13=Hank Thompson - There's A Woman in Nogales
TTITLE14=Faron Young and Ray Price - Whole Lot of You
EXTD=
EXTT0=
EXTT1=
EXTT2=
EXTT3=
EXTT4=
EXTT5=
EXTT6=
EXTT7=
EXTT8=
EXTT9=
EXTT10=
EXTT11=
EXTT12=
EXTT13=
EXTT14=
PLAYORDER=
